<?xml version="1.0" encoding="iso-8859-1"?>
<!-- Generator: Adobe Illustrator 19.0.0, SVG Export Plug-In . SVG Version: 6.00 Build 0)  -->
<svg version="1.1" id="Capa_1" xmlns="http://www.w3.org/2000/svg" xmlns:xlink="http://www.w3.org/1999/xlink" x="0px" y="0px"
	 viewBox="0 0 512 512" style="enable-background:new 0 0 512 512;" xml:space="preserve">
<path style="fill:#C8C6CD;" d="M356.702,0L356.702,0c-73.445,0-132.983,57.268-132.983,127.911v155.588h67.349V130.476
	c0-33.434,29.385-60.538,65.633-60.538l0,0c36.248,0,65.633,27.104,65.633,60.538v50.738l67.349,0.019v-53.321
	C489.685,57.268,430.146,0,356.702,0z"/>
<rect x="22.317" y="239.89" style="fill:#FFB74F;" width="323.93" height="272.11"/>
<path style="fill:#9A4C00;" d="M224.457,353.18c0,10.95-4.38,20.87-11.48,28.11l-0.03,49.6h-57.29l-0.08-49.6
	c-7.1-7.24-11.48-17.16-11.48-28.11c0-22.19,17.99-40.18,40.18-40.18S224.457,330.99,224.457,353.18z"/>
<rect x="184.281" y="239.89" style="fill:#FF9A00;" width="161.97" height="272.11"/>
<path style="fill:#703700;" d="M224.457,353.18c0,10.95-4.38,20.87-11.48,28.11l-0.03,49.6h-28.67V313
	C206.467,313,224.457,330.99,224.457,353.18z"/>
<g>
</g>
<g>
</g>
<g>
</g>
<g>
</g>
<g>
</g>
<g>
</g>
<g>
</g>
<g>
</g>
<g>
</g>
<g>
</g>
<g>
</g>
<g>
</g>
<g>
</g>
<g>
</g>
<g>
</g>
</svg>
